<mxfile host="www.draw.io" modified="2019-10-18T05:32:07.395Z" agent="Mozilla/5.0 (Macintosh; Intel Mac OS X 10_14_0) AppleWebKit/537.36 (KHTML, like Gecko) Chrome/77.0.3865.120 Safari/537.36" etag="8g3TLOrxEEdgRqzpy6YR" version="12.1.3" type="github" pages="2">
  <diagram id="p9crkO-qOJ0_fdHpVkTA" name="流程图">
    <mxGraphModel dx="1999" dy="678" grid="1" gridSize="10" guides="1" tooltips="1" connect="1" arrows="1" fold="1" page="1" pageScale="1" pageWidth="827" pageHeight="1169" math="0" shadow="0">
      <root>
        <mxCell id="0"/>
        <mxCell id="1" parent="0"/>
        <mxCell id="lKZqmJ_SvUkQqVjXmLx8-13" style="edgeStyle=orthogonalEdgeStyle;rounded=0;orthogonalLoop=1;jettySize=auto;html=1;entryX=0.5;entryY=0;entryDx=0;entryDy=0;" edge="1" parent="1" source="lKZqmJ_SvUkQqVjXmLx8-7" target="lKZqmJ_SvUkQqVjXmLx8-8">
          <mxGeometry relative="1" as="geometry">
            <Array as="points">
              <mxPoint x="420" y="150"/>
              <mxPoint x="90" y="150"/>
            </Array>
          </mxGeometry>
        </mxCell>
        <mxCell id="lKZqmJ_SvUkQqVjXmLx8-14" style="edgeStyle=orthogonalEdgeStyle;rounded=0;orthogonalLoop=1;jettySize=auto;html=1;entryX=0.5;entryY=0;entryDx=0;entryDy=0;" edge="1" parent="1" source="lKZqmJ_SvUkQqVjXmLx8-7" target="lKZqmJ_SvUkQqVjXmLx8-9">
          <mxGeometry relative="1" as="geometry">
            <mxPoint x="350" y="190" as="targetPoint"/>
          </mxGeometry>
        </mxCell>
        <mxCell id="lKZqmJ_SvUkQqVjXmLx8-15" style="edgeStyle=orthogonalEdgeStyle;rounded=0;orthogonalLoop=1;jettySize=auto;html=1;entryX=0.5;entryY=0;entryDx=0;entryDy=0;" edge="1" parent="1" source="lKZqmJ_SvUkQqVjXmLx8-7" target="lKZqmJ_SvUkQqVjXmLx8-11">
          <mxGeometry relative="1" as="geometry">
            <Array as="points">
              <mxPoint x="420" y="150"/>
              <mxPoint x="530" y="150"/>
            </Array>
          </mxGeometry>
        </mxCell>
        <mxCell id="lKZqmJ_SvUkQqVjXmLx8-16" style="edgeStyle=orthogonalEdgeStyle;rounded=0;orthogonalLoop=1;jettySize=auto;html=1;" edge="1" parent="1" source="lKZqmJ_SvUkQqVjXmLx8-7" target="lKZqmJ_SvUkQqVjXmLx8-12">
          <mxGeometry relative="1" as="geometry">
            <Array as="points">
              <mxPoint x="420" y="150"/>
              <mxPoint x="730" y="150"/>
            </Array>
          </mxGeometry>
        </mxCell>
        <mxCell id="lKZqmJ_SvUkQqVjXmLx8-7" value="开始" style="strokeWidth=2;html=1;shape=mxgraph.flowchart.start_1;whiteSpace=wrap;" vertex="1" parent="1">
          <mxGeometry x="370" y="40" width="100" height="60" as="geometry"/>
        </mxCell>
        <mxCell id="lKZqmJ_SvUkQqVjXmLx8-17" style="edgeStyle=orthogonalEdgeStyle;rounded=0;orthogonalLoop=1;jettySize=auto;html=1;" edge="1" parent="1" source="lKZqmJ_SvUkQqVjXmLx8-8">
          <mxGeometry relative="1" as="geometry">
            <mxPoint x="90" y="390" as="targetPoint"/>
          </mxGeometry>
        </mxCell>
        <mxCell id="lKZqmJ_SvUkQqVjXmLx8-8" value="查看提醒" style="rounded=1;whiteSpace=wrap;html=1;absoluteArcSize=1;arcSize=14;strokeWidth=2;" vertex="1" parent="1">
          <mxGeometry x="40" y="200" width="100" height="100" as="geometry"/>
        </mxCell>
        <mxCell id="lKZqmJ_SvUkQqVjXmLx8-9" value="新建提醒" style="rounded=1;whiteSpace=wrap;html=1;absoluteArcSize=1;arcSize=14;strokeWidth=2;" vertex="1" parent="1">
          <mxGeometry x="280" y="200" width="100" height="100" as="geometry"/>
        </mxCell>
        <mxCell id="lKZqmJ_SvUkQqVjXmLx8-11" value="修改提醒" style="rounded=1;whiteSpace=wrap;html=1;absoluteArcSize=1;arcSize=14;strokeWidth=2;" vertex="1" parent="1">
          <mxGeometry x="480" y="200" width="100" height="100" as="geometry"/>
        </mxCell>
        <mxCell id="lKZqmJ_SvUkQqVjXmLx8-12" value="删除提醒" style="rounded=1;whiteSpace=wrap;html=1;absoluteArcSize=1;arcSize=14;strokeWidth=2;" vertex="1" parent="1">
          <mxGeometry x="680" y="200" width="100" height="100" as="geometry"/>
        </mxCell>
        <mxCell id="lKZqmJ_SvUkQqVjXmLx8-18" value="业务" style="rounded=1;whiteSpace=wrap;html=1;absoluteArcSize=1;arcSize=14;strokeWidth=2;" vertex="1" parent="1">
          <mxGeometry x="40" y="390" width="100" height="100" as="geometry"/>
        </mxCell>
        <mxCell id="lKZqmJ_SvUkQqVjXmLx8-19" value="订单" style="rounded=1;whiteSpace=wrap;html=1;absoluteArcSize=1;arcSize=14;strokeWidth=2;" vertex="1" parent="1">
          <mxGeometry x="-100" y="550" width="100" height="100" as="geometry"/>
        </mxCell>
        <mxCell id="lKZqmJ_SvUkQqVjXmLx8-20" value="点评" style="rounded=1;whiteSpace=wrap;html=1;absoluteArcSize=1;arcSize=14;strokeWidth=2;" vertex="1" parent="1">
          <mxGeometry x="40" y="550" width="100" height="100" as="geometry"/>
        </mxCell>
        <mxCell id="lKZqmJ_SvUkQqVjXmLx8-21" value="用户" style="rounded=1;whiteSpace=wrap;html=1;absoluteArcSize=1;arcSize=14;strokeWidth=2;" vertex="1" parent="1">
          <mxGeometry x="200" y="550" width="100" height="100" as="geometry"/>
        </mxCell>
      </root>
    </mxGraphModel>
  </diagram>
  <diagram id="Hqn-g4_OafzTNDjgzVZP" name="Page-2">
    <mxGraphModel dx="1172" dy="678" grid="1" gridSize="10" guides="1" tooltips="1" connect="1" arrows="1" fold="1" page="1" pageScale="1" pageWidth="827" pageHeight="1169" math="0" shadow="0">
      <root>
        <mxCell id="Jgw811DZhMcqdpZUNES9-0"/>
        <mxCell id="Jgw811DZhMcqdpZUNES9-1" parent="Jgw811DZhMcqdpZUNES9-0"/>
        <mxCell id="Jgw811DZhMcqdpZUNES9-5" value="消息" style="whiteSpace=wrap;html=1;aspect=fixed;" vertex="1" parent="Jgw811DZhMcqdpZUNES9-1">
          <mxGeometry x="600" y="400" width="80" height="80" as="geometry"/>
        </mxCell>
        <mxCell id="Jgw811DZhMcqdpZUNES9-8" value="模板" style="whiteSpace=wrap;html=1;aspect=fixed;" vertex="1" parent="Jgw811DZhMcqdpZUNES9-1">
          <mxGeometry x="360" y="400" width="80" height="80" as="geometry"/>
        </mxCell>
        <mxCell id="Jgw811DZhMcqdpZUNES9-9" value="目标用户" style="whiteSpace=wrap;html=1;aspect=fixed;" vertex="1" parent="Jgw811DZhMcqdpZUNES9-1">
          <mxGeometry x="360" y="40" width="80" height="80" as="geometry"/>
        </mxCell>
        <mxCell id="Jgw811DZhMcqdpZUNES9-10" value="运营事件" style="rounded=0;whiteSpace=wrap;html=1;" vertex="1" parent="Jgw811DZhMcqdpZUNES9-1">
          <mxGeometry x="80" y="360" width="120" height="60" as="geometry"/>
        </mxCell>
        <mxCell id="Jgw811DZhMcqdpZUNES9-11" value="业务" style="swimlane;fontStyle=1;align=center;verticalAlign=top;childLayout=stackLayout;horizontal=1;startSize=26;horizontalStack=0;resizeParent=1;resizeParentMax=0;resizeLast=0;collapsible=1;marginBottom=0;" vertex="1" parent="Jgw811DZhMcqdpZUNES9-1">
          <mxGeometry x="40" y="100" width="160" height="86" as="geometry"/>
        </mxCell>
        <mxCell id="Jgw811DZhMcqdpZUNES9-12" value="+ field: type" style="text;strokeColor=none;fillColor=none;align=left;verticalAlign=top;spacingLeft=4;spacingRight=4;overflow=hidden;rotatable=0;points=[[0,0.5],[1,0.5]];portConstraint=eastwest;" vertex="1" parent="Jgw811DZhMcqdpZUNES9-11">
          <mxGeometry y="26" width="160" height="26" as="geometry"/>
        </mxCell>
        <mxCell id="Jgw811DZhMcqdpZUNES9-13" value="" style="line;strokeWidth=1;fillColor=none;align=left;verticalAlign=middle;spacingTop=-1;spacingLeft=3;spacingRight=3;rotatable=0;labelPosition=right;points=[];portConstraint=eastwest;" vertex="1" parent="Jgw811DZhMcqdpZUNES9-11">
          <mxGeometry y="52" width="160" height="8" as="geometry"/>
        </mxCell>
        <mxCell id="Jgw811DZhMcqdpZUNES9-14" value="+ method(type): type" style="text;strokeColor=none;fillColor=none;align=left;verticalAlign=top;spacingLeft=4;spacingRight=4;overflow=hidden;rotatable=0;points=[[0,0.5],[1,0.5]];portConstraint=eastwest;" vertex="1" parent="Jgw811DZhMcqdpZUNES9-11">
          <mxGeometry y="60" width="160" height="26" as="geometry"/>
        </mxCell>
        <mxCell id="Jgw811DZhMcqdpZUNES9-15" value="业务事件" style="swimlane;fontStyle=1;align=center;verticalAlign=top;childLayout=stackLayout;horizontal=1;startSize=26;horizontalStack=0;resizeParent=1;resizeParentMax=0;resizeLast=0;collapsible=1;marginBottom=0;" vertex="1" parent="Jgw811DZhMcqdpZUNES9-1">
          <mxGeometry x="160" y="200" width="160" height="86" as="geometry"/>
        </mxCell>
        <mxCell id="Jgw811DZhMcqdpZUNES9-16" value="+ field: type" style="text;strokeColor=none;fillColor=none;align=left;verticalAlign=top;spacingLeft=4;spacingRight=4;overflow=hidden;rotatable=0;points=[[0,0.5],[1,0.5]];portConstraint=eastwest;" vertex="1" parent="Jgw811DZhMcqdpZUNES9-15">
          <mxGeometry y="26" width="160" height="26" as="geometry"/>
        </mxCell>
        <mxCell id="Jgw811DZhMcqdpZUNES9-17" value="" style="line;strokeWidth=1;fillColor=none;align=left;verticalAlign=middle;spacingTop=-1;spacingLeft=3;spacingRight=3;rotatable=0;labelPosition=right;points=[];portConstraint=eastwest;" vertex="1" parent="Jgw811DZhMcqdpZUNES9-15">
          <mxGeometry y="52" width="160" height="8" as="geometry"/>
        </mxCell>
        <mxCell id="Jgw811DZhMcqdpZUNES9-18" value="+ method(type): type" style="text;strokeColor=none;fillColor=none;align=left;verticalAlign=top;spacingLeft=4;spacingRight=4;overflow=hidden;rotatable=0;points=[[0,0.5],[1,0.5]];portConstraint=eastwest;" vertex="1" parent="Jgw811DZhMcqdpZUNES9-15">
          <mxGeometry y="60" width="160" height="26" as="geometry"/>
        </mxCell>
        <mxCell id="Jgw811DZhMcqdpZUNES9-19" value="提醒" style="swimlane;fontStyle=1;align=center;verticalAlign=top;childLayout=stackLayout;horizontal=1;startSize=26;horizontalStack=0;resizeParent=1;resizeParentMax=0;resizeLast=0;collapsible=1;marginBottom=0;" vertex="1" parent="Jgw811DZhMcqdpZUNES9-1">
          <mxGeometry x="360" y="200" width="160" height="86" as="geometry"/>
        </mxCell>
        <mxCell id="Jgw811DZhMcqdpZUNES9-20" value="+ field: type" style="text;strokeColor=none;fillColor=none;align=left;verticalAlign=top;spacingLeft=4;spacingRight=4;overflow=hidden;rotatable=0;points=[[0,0.5],[1,0.5]];portConstraint=eastwest;" vertex="1" parent="Jgw811DZhMcqdpZUNES9-19">
          <mxGeometry y="26" width="160" height="26" as="geometry"/>
        </mxCell>
        <mxCell id="Jgw811DZhMcqdpZUNES9-21" value="" style="line;strokeWidth=1;fillColor=none;align=left;verticalAlign=middle;spacingTop=-1;spacingLeft=3;spacingRight=3;rotatable=0;labelPosition=right;points=[];portConstraint=eastwest;" vertex="1" parent="Jgw811DZhMcqdpZUNES9-19">
          <mxGeometry y="52" width="160" height="8" as="geometry"/>
        </mxCell>
        <mxCell id="Jgw811DZhMcqdpZUNES9-22" value="+ method(type): type" style="text;strokeColor=none;fillColor=none;align=left;verticalAlign=top;spacingLeft=4;spacingRight=4;overflow=hidden;rotatable=0;points=[[0,0.5],[1,0.5]];portConstraint=eastwest;" vertex="1" parent="Jgw811DZhMcqdpZUNES9-19">
          <mxGeometry y="60" width="160" height="26" as="geometry"/>
        </mxCell>
        <mxCell id="Jgw811DZhMcqdpZUNES9-23" value="通道" style="swimlane;fontStyle=1;align=center;verticalAlign=top;childLayout=stackLayout;horizontal=1;startSize=26;horizontalStack=0;resizeParent=1;resizeParentMax=0;resizeLast=0;collapsible=1;marginBottom=0;" vertex="1" parent="Jgw811DZhMcqdpZUNES9-1">
          <mxGeometry x="600" y="200" width="160" height="86" as="geometry"/>
        </mxCell>
        <mxCell id="Jgw811DZhMcqdpZUNES9-24" value="+ field: type" style="text;strokeColor=none;fillColor=none;align=left;verticalAlign=top;spacingLeft=4;spacingRight=4;overflow=hidden;rotatable=0;points=[[0,0.5],[1,0.5]];portConstraint=eastwest;" vertex="1" parent="Jgw811DZhMcqdpZUNES9-23">
          <mxGeometry y="26" width="160" height="26" as="geometry"/>
        </mxCell>
        <mxCell id="Jgw811DZhMcqdpZUNES9-25" value="" style="line;strokeWidth=1;fillColor=none;align=left;verticalAlign=middle;spacingTop=-1;spacingLeft=3;spacingRight=3;rotatable=0;labelPosition=right;points=[];portConstraint=eastwest;" vertex="1" parent="Jgw811DZhMcqdpZUNES9-23">
          <mxGeometry y="52" width="160" height="8" as="geometry"/>
        </mxCell>
        <mxCell id="Jgw811DZhMcqdpZUNES9-26" value="+ method(type): type" style="text;strokeColor=none;fillColor=none;align=left;verticalAlign=top;spacingLeft=4;spacingRight=4;overflow=hidden;rotatable=0;points=[[0,0.5],[1,0.5]];portConstraint=eastwest;" vertex="1" parent="Jgw811DZhMcqdpZUNES9-23">
          <mxGeometry y="60" width="160" height="26" as="geometry"/>
        </mxCell>
        <mxCell id="Jgw811DZhMcqdpZUNES9-27" value="渠道" style="swimlane;fontStyle=1;align=center;verticalAlign=top;childLayout=stackLayout;horizontal=1;startSize=26;horizontalStack=0;resizeParent=1;resizeParentMax=0;resizeLast=0;collapsible=1;marginBottom=0;" vertex="1" parent="Jgw811DZhMcqdpZUNES9-1">
          <mxGeometry x="880" y="200" width="160" height="86" as="geometry"/>
        </mxCell>
        <mxCell id="Jgw811DZhMcqdpZUNES9-28" value="+ field: type" style="text;strokeColor=none;fillColor=none;align=left;verticalAlign=top;spacingLeft=4;spacingRight=4;overflow=hidden;rotatable=0;points=[[0,0.5],[1,0.5]];portConstraint=eastwest;" vertex="1" parent="Jgw811DZhMcqdpZUNES9-27">
          <mxGeometry y="26" width="160" height="26" as="geometry"/>
        </mxCell>
        <mxCell id="Jgw811DZhMcqdpZUNES9-29" value="" style="line;strokeWidth=1;fillColor=none;align=left;verticalAlign=middle;spacingTop=-1;spacingLeft=3;spacingRight=3;rotatable=0;labelPosition=right;points=[];portConstraint=eastwest;" vertex="1" parent="Jgw811DZhMcqdpZUNES9-27">
          <mxGeometry y="52" width="160" height="8" as="geometry"/>
        </mxCell>
        <mxCell id="Jgw811DZhMcqdpZUNES9-30" value="+ method(type): type" style="text;strokeColor=none;fillColor=none;align=left;verticalAlign=top;spacingLeft=4;spacingRight=4;overflow=hidden;rotatable=0;points=[[0,0.5],[1,0.5]];portConstraint=eastwest;" vertex="1" parent="Jgw811DZhMcqdpZUNES9-27">
          <mxGeometry y="60" width="160" height="26" as="geometry"/>
        </mxCell>
      </root>
    </mxGraphModel>
  </diagram>
</mxfile>
